<svg width="535" height="681" viewBox="0 0 535 681" fill="none" xmlns="http://www.w3.org/2000/svg">
<rect width="535" height="680.909" fill="#FF4500"/>
<path d="M53 619.999V567.705H71.0241C78.5262 567.705 84.5343 573.684 84.5343 581.15V584.139C84.5343 587.572 83.2628 590.783 81.0852 593.108C84.0893 595.576 86.0443 599.309 86.0443 603.564V606.553C86.0443 614.019 80.0362 619.999 72.5341 619.999H53ZM60.5021 612.533H72.5182C75.9037 612.533 78.5263 609.923 78.5263 606.553V603.564C78.5263 600.195 75.9037 597.585 72.5182 597.585H60.5021V612.533ZM60.5021 590.119H71.0083C74.3937 590.119 77.0163 587.509 77.0163 584.139V581.15C77.0163 577.781 74.3937 575.171 71.0083 575.171H60.5021V590.119Z" fill="white"/>
<path d="M93.8113 620V581.942H101.278V587.693L109.726 581.942H111.894C118.775 581.942 124.455 587.914 124.455 595.371V598.357H116.988V595.371C116.988 592.085 114.9 589.399 111.91 589.399H111.229L101.294 596.034V619.984H93.8271L93.8113 620Z" fill="white"/>
<path d="M142.716 620C135.242 620 129.257 614.107 129.257 606.635V595.371C129.257 587.914 135.242 581.942 142.716 581.942H148.701C156.174 581.942 162.16 587.914 162.16 595.371V606.635C162.16 614.092 156.174 620 148.701 620H142.716ZM136.73 606.651C136.73 610.016 139.343 612.464 142.716 612.543H148.701C152.073 612.543 154.686 610 154.686 606.651V595.387C154.686 592.022 152.073 589.415 148.701 589.415H142.716C139.359 589.415 136.73 592.022 136.73 595.387V606.651Z" fill="white"/>
<path d="M175.761 620L168.656 599.099V581.942H176.125V596.872L179.859 608.736L186.22 588.657H192.343L198.688 608.736L202.423 596.872V581.942H209.891V599.099L202.786 620H196.426L189.258 602.164L182.09 620H175.729H175.761Z" fill="white"/>
<path d="M228.46 620C221.206 620 215.822 615.292 215.822 608.957V607.472H223.297V608.957C223.297 611.343 225.245 613.065 228.46 613.065H235.27C238.785 613.065 240.512 611.643 240.512 609.478C240.512 601.042 216.344 606.493 216.344 592.022C216.344 585.971 221.206 581.942 228.317 581.942H234.747C241.478 581.942 246.72 586.792 246.72 593.064V593.744H239.245V593.064C239.245 590.679 237.376 588.878 234.763 588.878H228.333C225.197 588.878 223.851 590.142 223.851 592.006C223.851 598.056 248.019 594.249 248.019 609.463C248.019 615.735 242.856 619.984 235.301 619.984H228.491L228.46 620Z" fill="white"/>
<path d="M267.408 620C259.998 620 253.949 613.886 253.949 606.493V595.371C253.949 587.914 260.014 581.942 267.408 581.942H273.393C280.645 581.942 286.488 587.535 286.852 594.628V602.685H261.423V606.493C261.423 609.779 264.115 612.464 267.408 612.464H273.393C276.687 612.464 279.378 609.779 279.378 606.493V605.75H286.852V606.493C286.852 613.886 280.867 620 273.393 620H267.408ZM261.423 596.729H279.378V595.387C279.378 592.022 276.766 589.415 273.393 589.415H267.408C264.035 589.415 261.423 592.101 261.423 595.387V596.729Z" fill="white"/>
<path d="M295.043 620V581.942H302.51V587.693L310.958 581.942H313.125C320.007 581.942 325.686 587.914 325.686 595.371V598.357H318.219V595.371C318.219 592.085 316.131 589.399 313.141 589.399H312.477L302.541 596.034V619.984H295.074L295.043 620Z" fill="white"/>
<path d="M345.439 619.999L339.232 615.811V619.999H331.759V567H339.232V586.104L345.439 581.917H351.203C358.613 581.917 364.662 587.89 364.662 595.348V606.552C364.662 613.947 358.597 619.983 351.203 619.983H345.439V619.999ZM339.232 606.789L347.751 612.54H351.187C354.48 612.54 357.172 609.854 357.172 606.567V595.364C357.172 592.077 354.48 589.391 351.187 589.391H347.751L339.232 595.143V606.789Z" fill="white"/>
<path d="M384.957 620C377.515 620 371.441 613.949 371.441 606.572V595.371C371.441 587.914 377.531 581.942 384.957 581.942H390.745L396.979 586.129V581.942H404.485V620H396.979V615.813L390.745 620H384.957ZM378.946 606.572C378.946 609.858 381.65 612.543 384.957 612.543H388.408L396.963 606.793V595.15L388.408 589.399H384.957C381.65 589.399 378.946 592.085 378.946 595.371V606.572Z" fill="white"/>
<path d="M424.607 620C417.354 620 411.969 615.292 411.969 608.957V607.472H419.445V608.957C419.445 611.343 421.393 613.065 424.607 613.065H431.417C434.933 613.065 436.66 611.643 436.66 609.478C436.66 601.042 412.492 606.493 412.492 592.022C412.492 585.971 417.354 581.942 424.465 581.942H430.895C437.626 581.942 442.868 586.792 442.868 593.064V593.744H435.393V593.064C435.393 590.679 433.524 588.878 430.911 588.878H424.481C421.345 588.878 419.999 590.142 419.999 592.006C419.999 598.056 444.166 594.249 444.166 609.463C444.166 615.735 439.004 619.984 431.449 619.984H424.639L424.607 620Z" fill="white"/>
<path d="M463.556 620C456.146 620 450.097 613.886 450.097 606.493V595.371C450.097 587.914 456.161 581.942 463.556 581.942H469.541C476.793 581.942 482.636 587.535 483 594.628V602.685H457.571V606.493C457.571 609.779 460.262 612.464 463.556 612.464H469.541C472.835 612.464 475.526 609.779 475.526 606.493V605.75H483V606.493C483 613.886 477.015 620 469.541 620H463.556ZM457.571 596.729H475.526V595.387C475.526 592.022 472.914 589.415 469.541 589.415H463.556C460.183 589.415 457.571 592.101 457.571 595.387V596.729Z" fill="white"/>
<path fill-rule="evenodd" clip-rule="evenodd" d="M393.168 55L472.738 134.649V220.94L419.693 274.04L486 340.417V433.347L406.43 513H55V55H393.168ZM188.036 330.866V364.493H322.404V330.866H188.036ZM188.036 183.419V217.046H322.404V183.419H188.036Z" fill="white"/>
</svg>
